<svg width="108" height="69" viewBox="0 0 108 69" fill="none" xmlns="http://www.w3.org/2000/svg">
<path d="M7.32955 63.2727C6.06818 63.2727 4.98011 62.9943 4.06534 62.4375C3.15625 61.875 2.45455 61.0909 1.96023 60.0852C1.47159 59.0739 1.22727 57.8977 1.22727 56.5568C1.22727 55.2159 1.47159 54.0341 1.96023 53.0114C2.45455 51.983 3.14205 51.1818 4.02273 50.608C4.90909 50.0284 5.94318 49.7386 7.125 49.7386C7.80682 49.7386 8.48011 49.8523 9.14489 50.0795C9.80966 50.3068 10.4148 50.6761 10.9602 51.1875C11.5057 51.6932 11.9403 52.3636 12.2642 53.1989C12.5881 54.0341 12.75 55.0625 12.75 56.2841V57.1364H2.65909V55.3977H10.7045C10.7045 54.6591 10.5568 54 10.2614 53.4205C9.97159 52.8409 9.55682 52.3835 9.01705 52.0483C8.48295 51.7131 7.85227 51.5455 7.125 51.5455C6.32386 51.5455 5.63068 51.7443 5.04545 52.142C4.46591 52.5341 4.01989 53.0455 3.70739 53.6761C3.39489 54.3068 3.23864 54.983 3.23864 55.7045V56.8636C3.23864 57.8523 3.40909 58.6903 3.75 59.3778C4.09659 60.0597 4.5767 60.5795 5.19034 60.9375C5.80398 61.2898 6.51705 61.4659 7.32955 61.4659C7.85795 61.4659 8.33523 61.392 8.76136 61.2443C9.19318 61.0909 9.56534 60.8636 9.87784 60.5625C10.1903 60.2557 10.4318 59.875 10.6023 59.4205L12.5455 59.9659C12.3409 60.625 11.9972 61.2045 11.5142 61.7045C11.0313 62.1989 10.4347 62.5852 9.72443 62.8636C9.0142 63.1364 8.21591 63.2727 7.32955 63.2727ZM16.9581 49.9091L20.0945 55.2614L23.2308 49.9091H25.549L21.3217 56.4545L25.549 63H23.2308L20.0945 57.9205L16.9581 63H14.6399L18.799 56.4545L14.6399 49.9091H16.9581ZM28.419 67.9091V49.9091H30.3622V51.9886H30.6009C30.7486 51.7614 30.9531 51.4716 31.2145 51.1193C31.4815 50.7614 31.8622 50.4432 32.3565 50.1648C32.8565 49.8807 33.5327 49.7386 34.3849 49.7386C35.4872 49.7386 36.4588 50.0142 37.2997 50.5653C38.1406 51.1165 38.7969 51.8977 39.2685 52.9091C39.7401 53.9205 39.9759 55.1136 39.9759 56.4886C39.9759 57.875 39.7401 59.0767 39.2685 60.0938C38.7969 61.1051 38.1435 61.8892 37.3082 62.446C36.473 62.9972 35.5099 63.2727 34.419 63.2727C33.5781 63.2727 32.9048 63.1335 32.3991 62.8551C31.8935 62.571 31.5043 62.25 31.2315 61.892C30.9588 61.5284 30.7486 61.2273 30.6009 60.9886H30.4304V67.9091H28.419ZM30.3963 56.4545C30.3963 57.4432 30.5412 58.3153 30.831 59.071C31.1207 59.821 31.544 60.4091 32.1009 60.8352C32.6577 61.2557 33.3395 61.4659 34.1463 61.4659C34.9872 61.4659 35.6889 61.2443 36.2514 60.8011C36.8196 60.3523 37.2457 59.75 37.5298 58.9943C37.8196 58.233 37.9645 57.3864 37.9645 56.4545C37.9645 55.5341 37.8224 54.7045 37.5384 53.9659C37.2599 53.2216 36.8366 52.6335 36.2685 52.2017C35.706 51.7642 34.9986 51.5455 34.1463 51.5455C33.3281 51.5455 32.6406 51.7528 32.0838 52.1676C31.527 52.5767 31.1065 53.1506 30.8224 53.8892C30.5384 54.6222 30.3963 55.4773 30.3963 56.4545ZM43.044 63V49.9091H44.9872V51.8864H45.1236C45.3622 51.2386 45.794 50.7131 46.419 50.3097C47.044 49.9062 47.7486 49.7045 48.5327 49.7045C48.6804 49.7045 48.8651 49.7074 49.0866 49.7131C49.3082 49.7187 49.4759 49.7273 49.5895 49.7386V51.7841C49.5213 51.767 49.3651 51.7415 49.1207 51.7074C48.8821 51.6676 48.6293 51.6477 48.3622 51.6477C47.7259 51.6477 47.1577 51.7812 46.6577 52.0483C46.1634 52.3097 45.7713 52.6733 45.4815 53.1392C45.1974 53.5994 45.0554 54.125 45.0554 54.7159V63H43.044ZM57.0639 63.2727C55.8026 63.2727 54.7145 62.9943 53.7997 62.4375C52.8906 61.875 52.1889 61.0909 51.6946 60.0852C51.206 59.0739 50.9616 57.8977 50.9616 56.5568C50.9616 55.2159 51.206 54.0341 51.6946 53.0114C52.1889 51.983 52.8764 51.1818 53.7571 50.608C54.6435 50.0284 55.6776 49.7386 56.8594 49.7386C57.5412 49.7386 58.2145 49.8523 58.8793 50.0795C59.544 50.3068 60.1491 50.6761 60.6946 51.1875C61.2401 51.6932 61.6747 52.3636 61.9986 53.1989C62.3224 54.0341 62.4844 55.0625 62.4844 56.2841V57.1364H52.3935V55.3977H60.4389C60.4389 54.6591 60.2912 54 59.9957 53.4205C59.706 52.8409 59.2912 52.3835 58.7514 52.0483C58.2173 51.7131 57.5866 51.5455 56.8594 51.5455C56.0582 51.5455 55.3651 51.7443 54.7798 52.142C54.2003 52.5341 53.7543 53.0455 53.4418 53.6761C53.1293 54.3068 52.973 54.983 52.973 55.7045V56.8636C52.973 57.8523 53.1435 58.6903 53.4844 59.3778C53.831 60.0597 54.3111 60.5795 54.9247 60.9375C55.5384 61.2898 56.2514 61.4659 57.0639 61.4659C57.5923 61.4659 58.0696 61.392 58.4957 61.2443C58.9276 61.0909 59.2997 60.8636 59.6122 60.5625C59.9247 60.2557 60.1662 59.875 60.3366 59.4205L62.2798 59.9659C62.0753 60.625 61.7315 61.2045 61.2486 61.7045C60.7656 62.1989 60.169 62.5852 59.4588 62.8636C58.7486 63.1364 57.9503 63.2727 57.0639 63.2727ZM74.8168 52.8409L73.0099 53.3523C72.8963 53.0511 72.7287 52.7585 72.5071 52.4744C72.2912 52.1847 71.9957 51.946 71.6207 51.7585C71.2457 51.571 70.7656 51.4773 70.1804 51.4773C69.3793 51.4773 68.7116 51.6619 68.1776 52.0312C67.6491 52.3949 67.3849 52.858 67.3849 53.4205C67.3849 53.9205 67.5668 54.3153 67.9304 54.6051C68.294 54.8949 68.8622 55.1364 69.6349 55.3295L71.5781 55.8068C72.7486 56.0909 73.6207 56.5256 74.1946 57.1108C74.7685 57.6903 75.0554 58.4375 75.0554 59.3523C75.0554 60.1023 74.8395 60.7727 74.4077 61.3636C73.9815 61.9545 73.3849 62.4205 72.6179 62.7614C71.8509 63.1023 70.9588 63.2727 69.9418 63.2727C68.6065 63.2727 67.5014 62.983 66.6264 62.4034C65.7514 61.8239 65.1974 60.9773 64.9645 59.8636L66.8736 59.3864C67.0554 60.0909 67.3991 60.6193 67.9048 60.9716C68.4162 61.3239 69.0838 61.5 69.9077 61.5C70.8452 61.5 71.5895 61.3011 72.1406 60.9034C72.6974 60.5 72.9759 60.017 72.9759 59.4545C72.9759 59 72.8168 58.6193 72.4986 58.3125C72.1804 58 71.6918 57.767 71.0327 57.6136L68.8509 57.1023C67.652 56.8182 66.7713 56.3778 66.2088 55.7812C65.652 55.179 65.3736 54.4261 65.3736 53.5227C65.3736 52.7841 65.581 52.1307 65.9957 51.5625C66.4162 50.9943 66.9872 50.5483 67.7088 50.2244C68.4361 49.9006 69.2599 49.7386 70.1804 49.7386C71.4759 49.7386 72.4929 50.0227 73.2315 50.5909C73.9759 51.1591 74.5043 51.9091 74.8168 52.8409ZM87.3558 52.8409L85.549 53.3523C85.4354 53.0511 85.2678 52.7585 85.0462 52.4744C84.8303 52.1847 84.5348 51.946 84.1598 51.7585C83.7848 51.571 83.3047 51.4773 82.7195 51.4773C81.9183 51.4773 81.2507 51.6619 80.7166 52.0312C80.1882 52.3949 79.924 52.858 79.924 53.4205C79.924 53.9205 80.1058 54.3153 80.4695 54.6051C80.8331 54.8949 81.4013 55.1364 82.174 55.3295L84.1172 55.8068C85.2876 56.0909 86.1598 56.5256 86.7337 57.1108C87.3075 57.6903 87.5945 58.4375 87.5945 59.3523C87.5945 60.1023 87.3786 60.7727 86.9467 61.3636C86.5206 61.9545 85.924 62.4205 85.157 62.7614C84.3899 63.1023 83.4979 63.2727 82.4808 63.2727C81.1456 63.2727 80.0405 62.983 79.1655 62.4034C78.2905 61.8239 77.7365 60.9773 77.5036 59.8636L79.4126 59.3864C79.5945 60.0909 79.9382 60.6193 80.4439 60.9716C80.9553 61.3239 81.6229 61.5 82.4467 61.5C83.3842 61.5 84.1286 61.3011 84.6797 60.9034C85.2365 60.5 85.5149 60.017 85.5149 59.4545C85.5149 59 85.3558 58.6193 85.0376 58.3125C84.7195 58 84.2308 57.767 83.5717 57.6136L81.3899 57.1023C80.1911 56.8182 79.3104 56.3778 78.7479 55.7812C78.1911 55.179 77.9126 54.4261 77.9126 53.5227C77.9126 52.7841 78.12 52.1307 78.5348 51.5625C78.9553 50.9943 79.5263 50.5483 80.2479 50.2244C80.9751 49.9006 81.799 49.7386 82.7195 49.7386C84.0149 49.7386 85.032 50.0227 85.7706 50.5909C86.5149 51.1591 87.0433 51.9091 87.3558 52.8409Z" fill="white"/>
<path d="M48.1562 37.5977C45.7344 39.4596 43.0651 40.3906 40.1484 40.3906C38.1172 40.3906 36.2943 39.9349 34.6797 39.0234C33.0651 38.112 31.7891 36.875 30.8516 35.3125C29.9271 33.737 29.4648 31.9596 29.4648 29.9805C29.4648 28.0794 29.8945 26.3867 30.7539 24.9023C31.6133 23.4049 32.7917 22.2266 34.2891 21.3672C35.7865 20.5078 37.4857 20.0781 39.3867 20.0781C41.3398 20.0781 43.0586 20.5469 44.543 21.4844C46.0404 22.4219 47.2057 23.724 48.0391 25.3906C48.8724 27.0573 49.2891 28.9844 49.2891 31.1719V31.7969H32.9414C33.1758 32.9427 33.6445 33.9388 34.3477 34.7852C35.0638 35.6315 35.9492 36.2891 37.0039 36.7578C38.0586 37.2266 39.237 37.4609 40.5391 37.4609C42.7786 37.4609 44.8229 36.7253 46.6719 35.2539L48.1562 37.5977ZM32.8242 29.0625H46.2617C46.1185 27.8516 45.7409 26.7969 45.1289 25.8984C44.5299 24.987 43.7487 24.2773 42.7852 23.7695C41.8346 23.2617 40.7604 23.0078 39.5625 23.0078C38.3516 23.0078 37.2578 23.2617 36.2812 23.7695C35.3177 24.2773 34.5299 24.987 33.918 25.8984C33.319 26.7969 32.9544 27.8516 32.8242 29.0625ZM69.5625 40H66.8086L66.5938 37.4219C65.8776 38.3464 64.9661 39.0755 63.8594 39.6094C62.7526 40.1302 61.5156 40.3906 60.1484 40.3906C58.7422 40.3906 57.4857 40.1172 56.3789 39.5703C55.2721 39.0104 54.3997 38.2487 53.7617 37.2852C53.1367 36.3216 52.8242 35.2279 52.8242 34.0039C52.8242 32.7148 53.1628 31.582 53.8398 30.6055C54.5299 29.6159 55.4609 28.8411 56.6328 28.2812C57.8177 27.7214 59.1589 27.4414 60.6562 27.4414C61.6328 27.4414 62.6289 27.5651 63.6445 27.8125C64.6602 28.0469 65.5651 28.3724 66.3594 28.7891V27.9688C66.3594 26.9271 66.099 26.0417 65.5781 25.3125C65.0573 24.5703 64.3607 24.0039 63.4883 23.6133C62.6159 23.2096 61.6523 23.0078 60.5977 23.0078C59.6862 23.0078 58.7552 23.1771 57.8047 23.5156C56.8542 23.8411 55.9427 24.349 55.0703 25.0391L54.0156 22.2852C55.1484 21.556 56.3398 21.0091 57.5898 20.6445C58.8398 20.2669 60.0768 20.0781 61.3008 20.0781C62.9935 20.0781 64.4518 20.4232 65.6758 21.1133C66.9128 21.7904 67.8698 22.7604 68.5469 24.0234C69.224 25.2734 69.5625 26.7578 69.5625 28.4766V40ZM60.7148 37.4609C61.7174 37.4609 62.6354 37.2526 63.4688 36.8359C64.3021 36.4193 64.9792 35.8203 65.5 35.0391C66.0208 34.2448 66.3073 33.3073 66.3594 32.2266V31.8945C65.6432 31.3346 64.8359 30.9049 63.9375 30.6055C63.0521 30.293 62.1471 30.1367 61.2227 30.1367C59.7773 30.1367 58.5664 30.4883 57.5898 31.1914C56.6263 31.8945 56.1445 32.7865 56.1445 33.8672C56.1445 34.5443 56.3398 35.1562 56.7305 35.7031C57.1341 36.25 57.681 36.6797 58.3711 36.9922C59.0612 37.3047 59.8424 37.4609 60.7148 37.4609ZM85.9883 39.5312C84.6992 40.1042 83.4427 40.3906 82.2188 40.3906C81.0469 40.3906 80.0182 40.1367 79.1328 39.6289C78.2474 39.1081 77.5573 38.3854 77.0625 37.4609C76.5677 36.5234 76.3203 35.4362 76.3203 34.1992V23.3398H72.9023V20.4688H76.4766V15.5859H79.5234V20.4688H85.3633V23.3398H79.5234V33.6133C79.5234 34.7852 79.8359 35.7292 80.4609 36.4453C81.099 37.1615 81.9323 37.5195 82.9609 37.5195C83.7943 37.5195 84.6276 37.2721 85.4609 36.7773L85.9883 39.5312Z" fill="url(#paint0_linear_34_2)"/>
<path d="M16 3H24V42H16V3Z" fill="url(#paint1_linear_34_2)"/>
<defs>
<linearGradient id="paint0_linear_34_2" x1="101.385" y1="16.3462" x2="27.0539" y2="47.7614" gradientUnits="userSpaceOnUse">
<stop stop-color="#F2A8A8"/>
<stop offset="0.640625" stop-color="#9F87FF"/>
<stop offset="1" stop-color="#5671FF"/>
</linearGradient>
<linearGradient id="paint1_linear_34_2" x1="48.5" y1="-6.92186" x2="23.8715" y2="-10.7424" gradientUnits="userSpaceOnUse">
<stop stop-color="#F2A8A8"/>
<stop offset="0.640625" stop-color="#9F87FF"/>
<stop offset="1" stop-color="#5671FF"/>
</linearGradient>
</defs>
</svg>
