<svg width="140" height="131" viewBox="0 0 140 131" fill="none" xmlns="http://www.w3.org/2000/svg">
<path fill-rule="evenodd" clip-rule="evenodd" d="M131 65.5C131 101.675 101.675 131 65.5 131C29.3253 131 0 101.675 0 65.5C0 29.3253 29.3253 0 65.5 0C87.5241 0 107.009 10.87 118.884 27.5378L125.066 21.3553L139.208 35.4975L128.203 46.503C130.022 52.5156 131 58.8936 131 65.5ZM114.749 59.9568C114.915 61.6154 115 63.2977 115 65C115 92.6142 92.6143 115 65 115C37.3858 115 15 92.6142 15 65C15 37.3858 37.3858 15 65 15C83.0143 15 98.8036 24.5267 107.605 38.8168L68.4975 77.9239L33.1422 42.5686L19 56.7107L54.3553 92.066L68.4975 106.208L82.6396 92.066L114.749 59.9568Z" fill="#299F00"/>
</svg>
